<?xml version="1.0" encoding="UTF-8"?>
<svg width="19px" height="19px" viewBox="0 0 19 19" version="1.1" xmlns="http://www.w3.org/2000/svg" xmlns:xlink="http://www.w3.org/1999/xlink">
    <!-- Generator: Sketch 51.2 (57519) - http://www.bohemiancoding.com/sketch -->
    <title>icon-search</title>
    <desc>Created with Sketch.</desc>
    <defs></defs>
    <g id="Page-1" stroke="none" stroke-width="1" fill="none" fill-rule="evenodd">
        <g id="Desktop-HD" transform="translate(-888.000000, -430.000000)" fill="#558D28" fill-rule="nonzero">
            <g id="search" transform="translate(499.000000, 417.000000)">
                <g id="icon-search" transform="translate(389.000000, 13.000000)">
                    <path d="M18.6524995,16.9730701 L13.9481081,12.2622208 C14.8803174,10.9868358 15.4366742,9.41932359 15.4366742,7.7188103 C15.4366742,3.455652 11.981562,0 7.71833709,0 C3.45570597,2.10944023e-15 0,3.455652 0,7.7188103 C0,11.9819686 3.45570597,15.4376206 7.71833709,15.4376206 C9.42303328,15.4376206 10.9929451,14.8788975 12.2701312,13.9425464 L16.9727414,18.6522082 C17.436471,19.1159306 18.1881761,19.1159306 18.6519058,18.6522082 C19.1156354,18.1884858 19.1162291,17.4367925 18.6524995,16.9730701 Z M2.37505565,7.7188103 C2.37505565,4.76725599 4.76733045,2.37501855 7.71833709,2.37501855 C10.6699375,2.37501855 13.0622123,4.76725599 13.0622123,7.7188103 C13.0622123,10.6703646 10.6699375,13.0626021 7.71833709,13.0626021 C4.76733045,13.0626021 2.37505565,10.6703646 2.37505565,7.7188103 Z" id="Shape"></path>
                </g>
            </g>
        </g>
    </g>
</svg>