<?xml version="1.0" encoding="UTF-8"?>
<svg width="26px" height="20px" viewBox="0 0 26 20" version="1.1" xmlns="http://www.w3.org/2000/svg" xmlns:xlink="http://www.w3.org/1999/xlink">
    <!-- Generator: Sketch 51.2 (57519) - http://www.bohemiancoding.com/sketch -->
    <title>arrow-left</title>
    <desc>Created with Sketch.</desc>
    <defs>
        <linearGradient x1="-2.53146701%" y1="0%" x2="100%" y2="94.1575353%" id="linearGradient-1">
            <stop stop-color="#7DDA33" offset="0%"></stop>
            <stop stop-color="#558D28" offset="100%"></stop>
        </linearGradient>
    </defs>
    <g id="Page-1" stroke="none" stroke-width="1" fill="none" fill-rule="evenodd">
        <g id="Desktop-HD" transform="translate(-250.000000, -3968.000000)" fill="url(#linearGradient-1)">
            <g id="features" transform="translate(0.000000, 3259.000000)">
                <g id="nav" transform="translate(250.000000, 709.000000)">
                    <path d="M7.95620438,0.656934307 C8.39416277,0.218975912 8.92943723,0 9.5620438,0 C10.1946504,0 10.7299248,0.218975912 11.1678832,0.656934307 C11.6058416,1.0948927 11.8248175,1.65449781 11.8248175,2.33576642 C11.8248175,3.01703504 11.6058416,3.57664015 11.1678832,4.01459854 L7.59124088,7.66423358 L23.4306569,7.66423358 C24.0632635,7.66423358 24.598538,7.89537482 25.0364964,8.35766423 C25.4744547,8.81995365 25.6934307,9.36739343 25.6934307,10 C25.6934307,10.6326066 25.4744547,11.1800464 25.0364964,11.6423358 C24.598538,12.1046252 24.0632635,12.3357664 23.4306569,12.3357664 L7.59124088,12.3357664 L11.0948905,15.9854015 C11.5328489,16.4233599 11.7518248,16.982965 11.7518248,17.6642336 C11.7518248,18.3455022 11.5328489,18.9051073 11.0948905,19.3430657 C10.6569321,19.7810241 10.133823,20 9.52554745,20 C8.9172719,20 8.39416277,19.7810241 7.95620438,19.3430657 L0.656934307,11.6058394 C0.218975912,11.167881 0,10.6326066 0,10 C0,9.31873139 0.218975912,8.75912628 0.656934307,8.32116788 L7.95620438,0.656934307 Z" id="arrow-left"></path>
                </g>
            </g>
        </g>
    </g>
</svg>