<?xml version="1.0" encoding="UTF-8"?>
<svg width="33px" height="28px" viewBox="0 0 33 28" version="1.1" xmlns="http://www.w3.org/2000/svg" xmlns:xlink="http://www.w3.org/1999/xlink">
    <!-- Generator: Sketch 51.2 (57519) - http://www.bohemiancoding.com/sketch -->
    <title>arrow-right</title>
    <desc>Created with Sketch.</desc>
    <defs>
        <linearGradient x1="-2.53146701%" y1="0%" x2="100%" y2="94.1575353%" id="linearGradient-1">
            <stop stop-color="#7DDA33" offset="0%"></stop>
            <stop stop-color="#558D28" offset="100%"></stop>
        </linearGradient>
        <path d="M931.737226,0.656934307 L939.036496,8.32116788 C939.474455,8.75912628 939.693431,9.31873139 939.693431,10 C939.693431,10.6326066 939.474455,11.167881 939.036496,11.6058394 L931.737226,19.3430657 C931.299268,19.7810241 930.776159,20 930.167883,20 C929.559608,20 929.036499,19.7810241 928.59854,19.3430657 C928.160582,18.9051073 927.941606,18.3455022 927.941606,17.6642336 C927.941606,16.982965 928.160582,16.4233599 928.59854,15.9854015 L932.10219,12.3357664 L916.262774,12.3357664 C915.630167,12.3357664 915.094893,12.1046252 914.656934,11.6423358 C914.218976,11.1800464 914,10.6326066 914,10 C914,9.36739343 914.218976,8.81995365 914.656934,8.35766423 C915.094893,7.89537482 915.630167,7.66423358 916.262774,7.66423358 L932.10219,7.66423358 L928.525547,4.01459854 C928.087589,3.57664015 927.868613,3.01703504 927.868613,2.33576642 C927.868613,1.65449781 928.087589,1.0948927 928.525547,0.656934307 C928.963506,0.218975912 929.49878,0 930.131387,0 C930.763993,0 931.299268,0.218975912 931.737226,0.656934307 Z" id="path-2"></path>
        <filter x="-27.2%" y="-25.0%" width="154.5%" height="170.0%" filterUnits="objectBoundingBox" id="filter-3">
            <feOffset dx="0" dy="2" in="SourceAlpha" result="shadowOffsetOuter1"></feOffset>
            <feGaussianBlur stdDeviation="2" in="shadowOffsetOuter1" result="shadowBlurOuter1"></feGaussianBlur>
            <feColorMatrix values="0 0 0 0 0   0 0 0 0 0   0 0 0 0 0  0 0 0 0.5 0" type="matrix" in="shadowBlurOuter1"></feColorMatrix>
        </filter>
    </defs>
    <g id="Page-1" stroke="none" stroke-width="1" fill="none" fill-rule="evenodd">
        <g id="Desktop-HD" transform="translate(-1160.000000, -3966.000000)">
            <g id="features" transform="translate(0.000000, 3259.000000)">
                <g id="nav" transform="translate(250.000000, 709.000000)">
                    <g id="arrow-right">
                        <use fill="black" fill-opacity="1" filter="url(#filter-3)" xlink:href="#path-2"></use>
                        <use fill="url(#linearGradient-1)" fill-rule="evenodd" xlink:href="#path-2"></use>
                    </g>
                </g>
            </g>
        </g>
    </g>
</svg>