<?xml version="1.0" encoding="UTF-8"?>
<svg width="15px" height="14px" viewBox="0 0 15 14" version="1.1" xmlns="http://www.w3.org/2000/svg" xmlns:xlink="http://www.w3.org/1999/xlink">
    <!-- Generator: Sketch 51.2 (57519) - http://www.bohemiancoding.com/sketch -->
    <title>icon-linkedin</title>
    <desc>Created with Sketch.</desc>
    <defs></defs>
    <g id="Page-1" stroke="none" stroke-width="1" fill="none" fill-rule="evenodd">
        <g id="Desktop-HD" transform="translate(-83.000000, -4969.000000)" fill="#FFFFFF">
            <g id="footer" transform="translate(0.000000, 4836.000000)">
                <g id="Group-3" transform="translate(20.000000, 126.000000)">
                    <path d="M76.0351562,7.5 C76.3398453,7.5 76.5976552,7.59960838 76.8085938,7.79882812 C77.0195323,7.99804787 77.125,8.24999848 77.125,8.5546875 L77.125,19.8398438 C77.125,20.1445328 77.0195323,20.4140613 76.8085938,20.6484375 C76.5976552,20.8828137 76.3398453,21 76.0351562,21 L64.7851562,21 C64.4804672,21 64.2109387,20.8828137 63.9765625,20.6484375 C63.7421863,20.4140613 63.625,20.1445328 63.625,19.8398438 L63.625,8.5546875 C63.625,8.24999848 63.736327,7.99804787 63.9589844,7.79882812 C64.1816417,7.59960838 64.4570296,7.5 64.7851562,7.5 L76.0351562,7.5 Z M67.8085938,18.75 L67.8085938,12.7382812 L65.875,12.7382812 L65.875,18.75 L67.8085938,18.75 Z M66.15625,11.5429688 C66.3437509,11.7304697 66.5898422,11.8242188 66.8945312,11.8242188 C67.1992203,11.8242188 67.4511709,11.7246104 67.6503906,11.5253906 C67.8496104,11.3261709 67.9492188,11.0859389 67.9492188,10.8046875 C67.9492188,10.4999985 67.8554697,10.2480479 67.6679688,10.0488281 C67.4804678,9.84960838 67.2343765,9.75 66.9296875,9.75 C66.6249985,9.75 66.3730479,9.84960838 66.1738281,10.0488281 C65.9746084,10.2480479 65.875,10.4999985 65.875,10.8046875 C65.875,11.0859389 65.9687491,11.3320302 66.15625,11.5429688 Z M74.875,18.75 L74.875,15.234375 C74.875,14.3671832 74.6699239,13.7109397 74.2597656,13.265625 C73.8496073,12.8203103 73.3164095,12.5976562 72.6601562,12.5976562 C71.9570277,12.5976562 71.3710961,12.925778 70.9023438,13.5820312 L70.9023438,12.7382812 L68.96875,12.7382812 L68.96875,18.75 L70.9023438,18.75 L70.9023438,15.3398438 C70.9023438,15.1054676 70.925781,14.9414067 70.9726562,14.8476562 C71.1601572,14.3789039 71.4882789,14.1445312 71.9570312,14.1445312 C72.6132845,14.1445312 72.9414062,14.5781207 72.9414062,15.4453125 L72.9414062,18.75 L74.875,18.75 Z" id="icon-linkedin"></path>
                </g>
            </g>
        </g>
    </g>
</svg>