<?xml version="1.0" encoding="UTF-8"?>
<svg width="17px" height="14px" viewBox="0 0 17 14" version="1.1" xmlns="http://www.w3.org/2000/svg" xmlns:xlink="http://www.w3.org/1999/xlink">
    <!-- Generator: Sketch 51.2 (57519) - http://www.bohemiancoding.com/sketch -->
    <title>icon-twitter</title>
    <desc>Created with Sketch.</desc>
    <defs></defs>
    <g id="Page-1" stroke="none" stroke-width="1" fill="none" fill-rule="evenodd">
        <g id="Desktop-HD" transform="translate(-54.000000, -4969.000000)" fill="#FFFFFF">
            <g id="footer" transform="translate(0.000000, 4836.000000)">
                <g id="Group-3" transform="translate(20.000000, 126.000000)">
                    <path d="M50.671875,9.1171875 C50.2499979,9.77344078 49.6875035,10.3593724 48.984375,10.875 L48.984375,11.296875 C48.984375,13.7578248 48.0996182,15.9902244 46.3300781,17.9941406 C44.560538,19.9980569 42.2109521,21 39.28125,21 C37.4062406,21 35.671883,20.4843802 34.078125,19.453125 C34.4531269,19.5000002 34.7226554,19.5234375 34.8867188,19.5234375 C36.4570391,19.5234375 37.863275,19.0312549 39.1054688,18.046875 C38.3789026,18.0234374 37.7226592,17.794924 37.1367188,17.3613281 C36.5507783,16.9277322 36.1523448,16.3710971 35.9414062,15.6914062 C36.2226577,15.7382815 36.433593,15.7617188 36.5742188,15.7617188 C36.8085949,15.7617188 37.1132794,15.7148442 37.4882812,15.6210938 C36.7148399,15.4570304 36.0644558,15.0644562 35.5371094,14.4433594 C35.009763,13.8222625 34.7460938,13.1015666 34.7460938,12.28125 L34.7460938,12.2460938 C35.2617213,12.5273452 35.7773412,12.6679688 36.2929688,12.6679688 C35.2851512,12.0117155 34.78125,11.0625062 34.78125,9.8203125 C34.78125,9.23437207 34.9335922,8.6718777 35.2382812,8.1328125 C37.0429778,10.3593861 39.3749857,11.542968 42.234375,11.6835938 C42.1874998,11.5195304 42.1640625,11.2617205 42.1640625,10.9101562 C42.1640625,9.94921395 42.4921842,9.14062828 43.1484375,8.484375 C43.8046908,7.82812172 44.6132764,7.5 45.5742188,7.5 C46.5351611,7.5 47.3554654,7.86327762 48.0351562,8.58984375 C48.7382848,8.47265566 49.46484,8.19140848 50.2148438,7.74609375 C49.9804676,8.56641035 49.4765664,9.19921652 48.703125,9.64453125 C49.4296911,9.5742184 50.0859346,9.39843891 50.671875,9.1171875 Z" id="icon-twitter"></path>
                </g>
            </g>
        </g>
    </g>
</svg>